<svg width="40" height="40" viewBox="0 0 40 40" fill="none" xmlns="http://www.w3.org/2000/svg">
<circle cx="20" cy="20" r="20" fill="#0A2141" fill-opacity="0.2"/>
<circle cx="20" cy="20" r="17" fill="#0A2141"/>
<path d="M17.888 21.144C17.822 21.144 16.37 21.144 15.71 21.144C15.358 21.144 15.248 21.012 15.248 20.682C15.248 19.802 15.248 18.9 15.248 18.02C15.248 17.668 15.38 17.558 15.71 17.558H17.888C17.888 17.492 17.888 16.216 17.888 15.622C17.888 14.742 18.042 13.906 18.482 13.136C18.944 12.344 19.604 11.816 20.44 11.508C20.99 11.31 21.54 11.222 22.134 11.222H24.29C24.598 11.222 24.73 11.354 24.73 11.662V14.17C24.73 14.478 24.598 14.61 24.29 14.61C23.696 14.61 23.102 14.61 22.508 14.632C21.914 14.632 21.606 14.918 21.606 15.534C21.584 16.194 21.606 16.832 21.606 17.514H24.158C24.51 17.514 24.642 17.646 24.642 17.998V20.66C24.642 21.012 24.532 21.122 24.158 21.122C23.366 21.122 21.672 21.122 21.606 21.122V28.294C21.606 28.668 21.496 28.8 21.1 28.8C20.176 28.8 19.274 28.8 18.35 28.8C18.02 28.8 17.888 28.668 17.888 28.338C17.888 26.028 17.888 21.21 17.888 21.144Z" fill="white"/>
</svg>
