<svg width="48" height="48" viewBox="0 0 48 48" fill="none" xmlns="http://www.w3.org/2000/svg">
<circle cx="24" cy="24" r="24" fill="white" fill-opacity="0.2"/>
<circle cx="24" cy="24.0001" r="20.4" fill="white"/>
<path d="M21.4656 25.373C21.3864 25.373 19.644 25.373 18.852 25.373C18.4296 25.373 18.2976 25.2146 18.2976 24.8186C18.2976 23.7626 18.2976 22.6802 18.2976 21.6242C18.2976 21.2018 18.456 21.0698 18.852 21.0698H21.4656C21.4656 20.9906 21.4656 19.4594 21.4656 18.7466C21.4656 17.6906 21.6504 16.6874 22.1784 15.7634C22.7328 14.813 23.5248 14.1794 24.528 13.8098C25.188 13.5722 25.848 13.4666 26.5608 13.4666H29.148C29.5176 13.4666 29.676 13.625 29.676 13.9946V17.0042C29.676 17.3738 29.5176 17.5322 29.148 17.5322C28.4352 17.5322 27.7224 17.5322 27.0096 17.5586C26.2968 17.5586 25.9272 17.9018 25.9272 18.641C25.9008 19.433 25.9272 20.1986 25.9272 21.017H28.9896C29.412 21.017 29.5704 21.1754 29.5704 21.5978V24.7922C29.5704 25.2146 29.4384 25.3466 28.9896 25.3466C28.0392 25.3466 26.0064 25.3466 25.9272 25.3466V33.953C25.9272 34.4018 25.7952 34.5602 25.32 34.5602C24.2112 34.5602 23.1288 34.5602 22.02 34.5602C21.624 34.5602 21.4656 34.4018 21.4656 34.0058C21.4656 31.2338 21.4656 25.4522 21.4656 25.373Z" fill="#0A2141"/>
</svg>
