<svg width="129" height="50" viewBox="0 0 129 50" fill="none" xmlns="http://www.w3.org/2000/svg">
<g clip-path="url(#clip0_23_44)">
<path d="M49.7363 13.4429H57.5054V15.0913H54.4394V25.0617H52.7218V15.0913H49.7363V13.4429Z" fill="white"/>
<path d="M58.7372 19.2682C58.7372 18.468 58.887 17.7105 59.1866 16.9956C59.4971 16.2808 59.925 15.6459 60.4707 15.0911C61.0167 14.5363 61.6478 14.1042 62.3647 13.7948C63.0817 13.4747 63.8524 13.3147 64.6762 13.3147C65.4895 13.3147 66.2545 13.4747 66.9715 13.7948C67.6887 14.1042 68.3251 14.5363 68.8817 15.0911C69.4383 15.6459 69.8715 16.2808 70.182 16.9956C70.4921 17.7105 70.6475 18.468 70.6475 19.2682C70.6475 20.0897 70.4921 20.8579 70.182 21.5727C69.8715 22.2876 69.4383 22.9171 68.8817 23.4612C68.336 24.0053 67.6993 24.4321 66.9715 24.7415C66.2545 25.0403 65.4895 25.1896 64.6762 25.1896C63.8524 25.1896 63.0817 25.0403 62.3647 24.7415C61.6478 24.4428 61.0167 24.0267 60.4707 23.4932C59.925 22.9491 59.4971 22.3196 59.1866 21.6047C58.887 20.8792 58.7372 20.1004 58.7372 19.2682ZM60.503 19.2682C60.503 19.8657 60.6099 20.4258 60.824 20.9486C61.0487 21.4607 61.3535 21.9141 61.7389 22.3089C62.1242 22.693 62.5683 22.9971 63.0711 23.2211C63.5848 23.4345 64.1358 23.5412 64.7244 23.5412C65.3024 23.5412 65.8428 23.4345 66.3456 23.2211C66.8484 22.9971 67.2872 22.693 67.662 22.3089C68.047 21.9141 68.3466 21.4607 68.5607 20.9486C68.7748 20.4258 68.8817 19.8657 68.8817 19.2682C68.8817 18.6707 68.7692 18.1159 68.5445 17.6037C68.3308 17.0809 68.0312 16.6222 67.6458 16.2274C67.2714 15.8327 66.8273 15.5233 66.3136 15.2992C65.8105 15.0751 65.2701 14.9631 64.6924 14.9631C64.0932 14.9631 63.5419 15.0751 63.0391 15.2992C62.536 15.5233 62.0919 15.8327 61.7069 16.2274C61.3215 16.6222 61.022 17.0809 60.8078 17.6037C60.6046 18.1265 60.503 18.6813 60.503 19.2682Z" fill="white"/>
<path d="M74.7473 20.9167C74.7473 21.4075 74.8704 21.8503 75.1165 22.245C75.3626 22.6398 75.6889 22.9545 76.0954 23.1893C76.5022 23.424 76.9568 23.5414 77.4599 23.5414C77.9951 23.5414 78.4712 23.424 78.8885 23.1893C79.3059 22.9545 79.6322 22.6398 79.8677 22.245C80.1138 21.8503 80.2369 21.4075 80.2369 20.9167V13.4429H81.9222V20.9647C81.9222 21.8076 81.7242 22.5491 81.3283 23.1893C80.9324 23.8188 80.3972 24.3095 79.7232 24.6616C79.0489 25.0137 78.2946 25.1898 77.4599 25.1898C76.6467 25.1898 75.903 25.0137 75.2287 24.6616C74.5546 24.3095 74.0195 23.8188 73.6236 23.1893C73.2382 22.5491 73.0459 21.8076 73.0459 20.9647V13.4429H74.7473V20.9167Z" fill="white"/>
<path d="M93.6134 24.1814C93.4422 24.2987 93.1852 24.4428 92.8427 24.6135C92.5112 24.7735 92.1152 24.9122 91.655 25.0296C91.2056 25.1469 90.7081 25.2003 90.1624 25.1896C89.2528 25.1789 88.434 25.0189 87.7065 24.7095C86.9896 24.4001 86.3795 23.9786 85.8764 23.4452C85.3736 22.901 84.983 22.2822 84.7048 21.5887C84.4373 20.8846 84.3036 20.1377 84.3036 19.3482C84.3036 18.4733 84.4426 17.6731 84.721 16.9476C84.9991 16.2114 85.395 15.5712 85.9087 15.0271C86.433 14.483 87.043 14.0615 87.7385 13.7628C88.4449 13.4641 89.2152 13.3147 90.0499 13.3147C90.7668 13.3147 91.4142 13.4107 91.9922 13.6028C92.5699 13.7948 93.0569 14.0189 93.4528 14.2749L92.7787 15.8753C92.4683 15.6619 92.0832 15.4592 91.623 15.2672C91.1736 15.0645 90.6705 14.9631 90.1143 14.9631C89.5682 14.9631 89.0493 15.0751 88.557 15.2992C88.0757 15.5126 87.6474 15.8166 87.273 16.2114C86.9091 16.5955 86.6204 17.0489 86.4063 17.5717C86.1921 18.0839 86.0852 18.644 86.0852 19.2522C86.0852 19.871 86.1816 20.4418 86.3742 20.9646C86.5666 21.4874 86.8398 21.9408 87.1928 22.3249C87.5567 22.709 87.9899 23.0078 88.493 23.2211C88.9958 23.4345 89.563 23.5412 90.1944 23.5412C90.7936 23.5412 91.3178 23.4505 91.7675 23.2691C92.2274 23.0878 92.6022 22.8797 92.8909 22.645L93.6134 24.1814Z" fill="white"/>
<path d="M105.529 13.4429V25.0617H103.811V20.0525H97.904V25.0617H96.1865V13.4429H97.904V18.4201H103.811V13.4429H105.529Z" fill="white"/>
<path d="M108.805 13.4429H116.461V15.0913H110.522V18.4041H115.803V20.0525H110.522V23.4133H116.686V25.0617H108.805V13.4429Z" fill="white"/>
<path d="M119.323 25.0617V13.4429H122.565C123.721 13.4429 124.706 13.6189 125.519 13.971C126.332 14.3231 126.985 14.7872 127.477 15.3634C127.98 15.9395 128.344 16.5796 128.569 17.2838C128.804 17.988 128.922 18.6975 128.922 19.4123C128.922 20.2766 128.767 21.0554 128.456 21.7489C128.146 22.4424 127.724 23.0399 127.188 23.5414C126.653 24.0321 126.038 24.4109 125.342 24.6776C124.647 24.9337 123.909 25.0617 123.127 25.0617H119.323ZM121.041 23.4133H122.806C123.438 23.4133 124.015 23.3226 124.54 23.1413C125.075 22.9599 125.535 22.6932 125.92 22.3411C126.316 21.989 126.621 21.5569 126.835 21.0447C127.049 20.5326 127.156 19.9458 127.156 19.2843C127.156 18.5695 127.033 17.9507 126.787 17.4279C126.552 16.8944 126.236 16.4569 125.84 16.1155C125.444 15.7635 125 15.5074 124.508 15.3473C124.026 15.1767 123.534 15.0913 123.031 15.0913H121.041V23.4133Z" fill="white"/>
<path d="M53.6859 31.5352C54.8627 31.5352 55.7885 31.7752 56.4625 32.2554C57.1474 32.7355 57.4899 33.4717 57.4899 34.4638C57.4899 35.1039 57.3401 35.6536 57.0405 36.1121C56.7515 36.571 56.3451 36.9286 55.8205 37.1845C55.3068 37.4299 54.6971 37.5687 53.9907 37.6006L53.734 36.6884C54.5579 36.7098 55.2909 36.8539 55.933 37.1207C56.5856 37.3766 57.0993 37.7394 57.4737 38.2088C57.8591 38.6677 58.0517 39.2171 58.0517 39.8572C58.0517 40.444 57.9392 40.9509 57.7146 41.3776C57.5008 41.7937 57.2065 42.1352 56.8317 42.4019C56.4681 42.6579 56.0508 42.85 55.58 42.9779C55.1197 43.0954 54.638 43.1539 54.1352 43.1539H50.5879V31.5352H53.6859ZM53.9907 36.5605C54.5899 36.5605 55.0287 36.3898 55.3068 36.0483C55.5852 35.7069 55.7241 35.3013 55.7241 34.8319C55.7241 34.2559 55.5423 33.8398 55.1784 33.5835C54.8254 33.3171 54.3546 33.1835 53.766 33.1835H52.3055V36.5605H53.9907ZM54.0551 41.5697C54.4724 41.5697 54.8469 41.5108 55.1784 41.3937C55.5209 41.2654 55.7885 41.0789 55.9811 40.8335C56.1844 40.5773 56.286 40.2572 56.286 39.8733C56.286 39.4463 56.1682 39.1157 55.933 38.8809C55.7083 38.6355 55.414 38.4648 55.0501 38.3687C54.6971 38.2621 54.3279 38.2088 53.9426 38.2088H52.3055V41.5697H54.0551Z" fill="white"/>
<path d="M63.2308 39.3292L58.9131 31.5352H61.0319L64.3865 37.8727L63.8728 37.9046L67.1955 31.5352H69.2981L64.9484 39.3292V43.1539H63.2308V39.3292Z" fill="white"/>
<path d="M76.4678 43.1537V31.1509H76.4836L82.6796 39.905L81.9412 39.7448L88.1048 31.1509H88.1368V43.1537H86.4354V35.0077L86.5479 35.8879L82.2461 41.9534H82.214L77.832 35.8879L78.121 35.0879V43.1537H76.4678Z" fill="white"/>
<path d="M91.4053 43.1539V31.5352H94.6478C95.8035 31.5352 96.788 31.7112 97.6012 32.0633C98.4145 32.4154 99.0671 32.8795 99.5593 33.4556C100.062 34.0319 100.426 34.672 100.651 35.3759C100.886 36.0802 101.004 36.7898 101.004 37.5046C101.004 38.3687 100.849 39.1477 100.539 39.8411C100.228 40.5348 99.8054 41.1322 99.2706 41.6335C98.7355 42.1243 98.1202 42.5033 97.4247 42.77C96.7289 43.0259 95.9905 43.1539 95.2096 43.1539H91.4053ZM93.1229 41.5056H94.8886C95.5198 41.5056 96.0978 41.4148 96.622 41.2335C97.1572 41.0523 97.6171 40.7855 98.0024 40.4335C98.3983 40.0812 98.7035 39.6493 98.9173 39.1371C99.1314 38.625 99.2383 38.0381 99.2383 37.3766C99.2383 36.6618 99.1153 36.0431 98.8691 35.52C98.6339 34.9868 98.3182 34.5493 97.9222 34.2079C97.5263 33.8559 97.0823 33.5996 96.59 33.4398C96.1083 33.269 95.6161 33.1835 95.1133 33.1835H93.1229V41.5056Z" fill="white"/>
<path d="M109.621 33.7594C109.214 33.5459 108.776 33.3646 108.305 33.215C107.834 33.0656 107.379 32.991 106.94 32.991C106.341 32.991 105.865 33.1298 105.512 33.4071C105.159 33.6739 104.982 34.042 104.982 34.5114C104.982 34.8423 105.1 35.1301 105.335 35.3755C105.571 35.6209 105.876 35.8344 106.25 36.016C106.624 36.1972 107.021 36.3679 107.438 36.5278C107.791 36.6561 108.139 36.8107 108.481 36.992C108.834 37.1627 109.15 37.3762 109.428 37.6321C109.717 37.8883 109.942 38.2084 110.103 38.5926C110.274 38.966 110.359 39.4245 110.359 39.9689C110.359 40.5877 110.204 41.1479 109.894 41.6492C109.594 42.1505 109.155 42.5508 108.578 42.8495C108.01 43.1377 107.32 43.2818 106.507 43.2818C106.015 43.2818 105.533 43.2281 105.062 43.1216C104.602 43.0041 104.163 42.8548 103.746 42.6735C103.339 42.4814 102.97 42.2732 102.639 42.0492L103.409 40.7209C103.666 40.9025 103.96 41.0785 104.292 41.2492C104.623 41.4091 104.966 41.537 105.319 41.6331C105.683 41.7291 106.025 41.7771 106.346 41.7771C106.699 41.7771 107.047 41.7186 107.39 41.6012C107.732 41.4732 108.016 41.2811 108.24 41.0252C108.465 40.7584 108.578 40.4117 108.578 39.9847C108.578 39.6219 108.476 39.3179 108.272 39.0725C108.08 38.8166 107.818 38.5979 107.486 38.4163C107.165 38.235 106.817 38.0748 106.443 37.9364C106.079 37.7975 105.71 37.6429 105.335 37.4722C104.961 37.3015 104.613 37.0989 104.292 36.864C103.971 36.6186 103.709 36.3199 103.505 35.9679C103.313 35.6051 103.216 35.1623 103.216 34.6393C103.216 34.0206 103.361 33.4818 103.65 33.0232C103.949 32.5536 104.362 32.1855 104.886 31.9188C105.41 31.6521 106.015 31.5027 106.699 31.4707C107.481 31.4707 108.16 31.5667 108.738 31.7588C109.316 31.9508 109.83 32.1802 110.279 32.447L109.621 33.7594Z" fill="white"/>
<path d="M6.70214 6.83331C6.82071 6.83337 6.93652 6.79765 7.03434 6.73088C12.3745 3.09755 18.6328 1.1771 25.1328 1.1771C26.702 1.17693 28.2692 1.28999 29.8221 1.51541C29.9769 1.53788 30.1344 1.49812 30.2598 1.40488C30.3853 1.31164 30.4685 1.17254 30.4911 1.01817C30.5138 0.863796 30.474 0.706777 30.3806 0.581622C30.2872 0.456467 30.1477 0.373421 29.9929 0.350737C28.3835 0.117043 26.7592 -0.000174817 25.1328 1.95687e-07C18.3944 1.95687e-07 11.9059 1.99127 6.36888 5.75857C6.26466 5.82949 6.18597 5.93186 6.14434 6.05064C6.10274 6.16943 6.10039 6.29838 6.13767 6.41857C6.17496 6.53877 6.24985 6.6439 6.35146 6.71854C6.45305 6.79318 6.57594 6.83341 6.70214 6.83331Z" fill="white"/>
<path d="M4.04328 14.4846C4.125 14.4847 4.20587 14.4679 4.28069 14.4351C4.35555 14.4024 4.42273 14.3545 4.47799 14.2944C8.31697 10.1388 13.3261 7.23724 18.8482 5.9702C24.3704 4.70319 30.1477 5.1299 35.4222 7.19438C35.5681 7.25138 35.7304 7.24839 35.8736 7.18612C36.0171 7.12385 36.1299 7.00737 36.1873 6.86227C36.2444 6.71717 36.2418 6.5553 36.1794 6.41224C36.1174 6.26914 36.0006 6.15658 35.8551 6.09921C30.36 3.93799 24.337 3.48813 18.5804 4.80891C12.8237 6.12974 7.60375 9.15918 3.60887 13.4978C3.53127 13.5819 3.47994 13.6867 3.46113 13.7995C3.44233 13.9122 3.45681 14.028 3.5029 14.1326C3.54896 14.2373 3.62457 14.3263 3.72055 14.3888C3.81652 14.4513 3.92867 14.4846 4.04328 14.4846Z" fill="white"/>
<path d="M3.66971 21.315C3.73652 21.3543 3.81039 21.38 3.88716 21.3908C3.96393 21.4015 4.04209 21.3971 4.11715 21.3777C4.19221 21.3583 4.26268 21.3244 4.32457 21.2779C4.38647 21.2313 4.43856 21.1731 4.47785 21.1064C8.76607 13.8449 16.6806 9.33396 25.1328 9.33396C29.4918 9.33005 33.7692 10.5131 37.503 12.7556C37.6373 12.8362 37.7976 12.8603 37.9497 12.8228C38.1015 12.7853 38.2321 12.6892 38.3129 12.5557C38.3941 12.4221 38.4182 12.262 38.3809 12.1106C38.3433 11.9591 38.2473 11.8287 38.1133 11.7479C35.2658 10.0364 32.1063 8.90498 28.8174 8.41913C25.5285 7.93327 22.1756 8.10268 18.9528 8.91748C15.7301 9.73232 12.7014 11.1764 10.0421 13.1661C7.38286 15.1558 5.14582 17.6517 3.46054 20.5093C3.42121 20.5758 3.39541 20.6495 3.38462 20.7261C3.37387 20.8026 3.37832 20.8805 3.39775 20.9553C3.41715 21.0301 3.45117 21.1004 3.49785 21.1621C3.5445 21.2239 3.6029 21.2758 3.66971 21.315Z" fill="white"/>
<path d="M25.1339 12.2364C22.3695 12.233 19.6316 12.7734 17.077 13.8266C14.5224 14.8797 12.2013 16.425 10.2466 18.374C8.29195 20.3229 6.74207 22.6371 5.68575 25.1842C4.62944 27.7312 4.08744 30.461 4.09084 33.217L4.09087 33.2184C4.09087 35.5378 5.01502 37.7624 6.65998 39.4026C8.30498 41.0427 10.5361 41.9641 12.8624 41.9641C15.1888 41.9641 17.4199 41.0427 19.0648 39.4026C20.7098 37.7624 21.634 35.5378 21.634 33.2184L21.634 33.217C21.6339 32.292 22.0022 31.4047 22.658 30.7503C23.3138 30.0958 24.2034 29.7277 25.1312 29.7269C26.0591 29.7261 26.9493 30.0926 27.6062 30.746C28.2632 31.3993 28.633 32.286 28.6345 33.2111C28.6345 33.2131 28.6342 33.2151 28.6342 33.217C28.6342 41.1467 22.6941 47.8559 14.817 48.8233C14.6678 48.8417 14.5314 48.9161 14.4353 49.0312C14.3392 49.1463 14.2908 49.2937 14.2999 49.443C14.309 49.5927 14.375 49.7332 14.4843 49.8358C14.5936 49.9384 14.7382 49.9957 14.8884 49.996C14.9128 49.996 14.9371 49.9944 14.9613 49.9914C19.0611 49.4835 22.8335 47.4993 25.5689 44.4121C28.3043 41.3253 29.8142 37.348 29.8147 33.2289C29.8148 33.2249 29.8153 33.221 29.8153 33.217C29.8153 32.6043 29.6943 31.9973 29.4592 31.4311C29.224 30.8648 28.8793 30.3503 28.4447 29.9169C28.0101 29.4834 27.4941 29.1396 26.9262 28.905C26.3583 28.6704 25.7496 28.5495 25.135 28.5495C24.5202 28.5494 23.9115 28.67 23.3436 28.9045C22.7756 29.139 22.2596 29.4827 21.8249 29.916C21.3902 30.3493 21.0453 30.8638 20.81 31.43C20.5747 31.9962 20.4535 32.6031 20.4534 33.2161L20.4534 33.217C20.4534 37.3904 17.0481 40.7858 12.8624 40.7858C8.67677 40.7858 5.27147 37.3904 5.27147 33.217L5.2714 33.2164C5.27186 22.2969 14.1819 13.4134 25.1339 13.4134C29.7311 13.4151 34.1861 15.0031 37.7424 17.9078C37.8024 17.9569 37.8714 17.9937 37.9456 18.0162C38.0195 18.0387 38.0974 18.0464 38.1746 18.0388C38.2518 18.0313 38.3267 18.0087 38.395 17.9723C38.4636 17.9359 38.524 17.8864 38.5731 17.8267C38.6223 17.767 38.6592 17.6982 38.682 17.6243C38.7044 17.5503 38.712 17.4726 38.7048 17.3957C38.6972 17.3188 38.6744 17.2441 38.6378 17.1759C38.6015 17.1078 38.5517 17.0474 38.492 16.9983C34.7295 13.9118 30.0062 12.228 25.1339 12.2364Z" fill="white"/>
<path d="M37.4055 33.8052C37.5622 33.8052 37.7123 33.7434 37.8228 33.6328C37.9337 33.5226 37.9957 33.373 37.996 33.2167C37.9964 31.5324 37.6641 29.8644 37.0178 28.3081C36.3715 26.7518 35.4243 25.3377 34.23 24.1465C33.0353 22.9553 31.6174 22.0104 30.0566 21.3657C28.4959 20.721 26.823 20.3892 25.1337 20.3892C23.4443 20.3892 21.7715 20.721 20.2107 21.3657C18.65 22.0104 17.2319 22.9553 16.0375 24.1465C14.8431 25.3377 13.8957 26.7518 13.2495 28.3081C12.6034 29.8644 12.271 31.5324 12.2715 33.2167C12.2715 33.373 12.3337 33.5226 12.4444 33.6328C12.5551 33.7434 12.7052 33.8052 12.8618 33.8052C13.0183 33.8052 13.1685 33.7434 13.2792 33.6328C13.3899 33.5226 13.452 33.373 13.452 33.2167C13.452 26.7946 18.6924 21.5697 25.1336 21.5697C31.5749 21.5697 36.8152 26.7946 36.8152 33.2167C36.8152 33.373 36.8776 33.5226 36.9881 33.6328C37.099 33.7434 37.2491 33.8052 37.4055 33.8052Z" fill="white"/>
<path d="M25.1345 24.4714C23.9826 24.4708 22.8417 24.6965 21.7774 25.1357C20.7129 25.575 19.7457 26.219 18.9311 27.0311C18.1165 27.8432 17.4704 28.8075 17.0298 29.8686C16.5891 30.9299 16.3625 32.0673 16.363 33.2159L16.3629 33.2169C16.3629 34.1419 15.9946 35.029 15.3389 35.6836C14.6832 36.3379 13.7937 36.706 12.866 36.7067C11.9383 36.7077 11.0481 36.3412 10.3912 35.6882C9.73426 35.035 9.36422 34.1488 9.36244 33.2238C9.36244 33.2215 9.36273 33.2192 9.36273 33.2169C9.36273 24.5459 16.4377 17.4914 25.1341 17.4914C30.0772 17.4914 34.6389 19.7323 37.6492 23.6395C37.7445 23.7633 37.8854 23.8442 38.0405 23.8645C38.1959 23.8848 38.3529 23.8428 38.4769 23.7477C38.601 23.6526 38.6822 23.5122 38.7026 23.3575C38.7231 23.2027 38.6808 23.0462 38.5855 22.9224C37.0269 20.9042 35.0345 19.2602 32.7548 18.1112C30.1709 16.8128 27.2966 16.1956 24.4057 16.3186C21.5148 16.4415 18.7037 17.3005 16.2401 18.8137C13.7765 20.3268 11.7426 22.4437 10.332 24.9627C8.92156 27.4817 8.18148 30.3188 8.18233 33.2037C8.1822 33.2083 8.18164 33.2126 8.18164 33.2169C8.18148 34.4547 8.67451 35.6419 9.55224 36.5172C10.43 37.3925 11.6205 37.8846 12.862 37.8846C14.1034 37.885 15.2941 37.3932 16.1721 36.5182C17.05 35.6432 17.5434 34.456 17.5435 33.2182L17.5436 33.2169C17.5436 29.0437 20.9489 25.6485 25.1345 25.6485C29.3202 25.6485 32.7255 29.0437 32.7255 33.2169C32.7304 35.7606 32.2414 38.2807 31.2856 40.6389C31.2565 40.7106 31.2418 40.7873 31.2425 40.8646C31.2431 40.9419 31.259 41.0185 31.2893 41.0896C31.3195 41.1606 31.3636 41.2254 31.4189 41.2794C31.4742 41.3336 31.5396 41.3764 31.6115 41.4054C31.6834 41.4343 31.7603 41.4491 31.8378 41.4484C31.9153 41.4478 31.992 41.4317 32.0634 41.4017C32.1347 41.3715 32.1995 41.3274 32.2538 41.2725C32.3081 41.2172 32.3511 41.1521 32.3801 41.0804C33.3928 38.582 33.9111 35.9116 33.9062 33.2169C33.9068 32.0683 33.6802 30.9308 33.2397 29.8695C32.7991 28.8081 32.153 27.8438 31.3383 27.0315C30.5237 26.2193 29.5565 25.5751 28.492 25.1358C27.4275 24.6965 26.2866 24.4707 25.1345 24.4714Z" fill="white"/>
<path d="M12.8622 46.0412C14.5515 46.0422 16.2245 45.7109 17.7854 45.0668C19.3463 44.4228 20.7647 43.478 21.9592 42.2872C23.1538 41.0961 24.1011 39.682 24.7472 38.1257C25.3932 36.5695 25.7253 34.9014 25.7244 33.2168C25.7244 33.0609 25.6622 32.9112 25.5515 32.8008C25.4408 32.6905 25.2907 32.6284 25.1341 32.6284C24.9775 32.6284 24.8274 32.6905 24.7167 32.8008C24.606 32.9112 24.5438 33.0609 24.5438 33.2168C24.5438 39.6392 19.3034 44.8642 12.8622 44.8642C6.42091 44.8642 1.18059 39.6392 1.18059 33.2168C1.18059 33.0609 1.1184 32.9112 1.0077 32.8008C0.896993 32.6905 0.746851 32.6284 0.590296 32.6284C0.433741 32.6284 0.283595 32.6905 0.172893 32.8008C0.0621919 32.9112 1.92068e-06 33.0609 1.92068e-06 33.2168C-0.000921505 34.9014 0.331138 36.5695 0.977194 38.1257C1.62325 39.682 2.57064 41.0961 3.76519 42.2872C4.95974 43.478 6.37802 44.4228 7.93895 45.0668C9.49988 45.7109 11.1728 46.0422 12.8622 46.0412Z" fill="white"/>
</g>
<defs>
<clipPath id="clip0_23_44">
<rect width="129" height="50" fill="white"/>
</clipPath>
</defs>
</svg>
