<svg width="129" height="50" viewBox="0 0 129 50" fill="none" xmlns="http://www.w3.org/2000/svg">
<g clip-path="url(#clip0_23_253)">
<path d="M49.7363 13.4429H57.5054V15.0913H54.4394V25.0617H52.7218V15.0913H49.7363V13.4429Z" fill="#222222"/>
<path d="M58.7372 19.2682C58.7372 18.468 58.887 17.7105 59.1866 16.9956C59.4971 16.2808 59.925 15.6459 60.4707 15.0911C61.0167 14.5363 61.6478 14.1042 62.3647 13.7948C63.0817 13.4747 63.8524 13.3147 64.6762 13.3147C65.4895 13.3147 66.2545 13.4747 66.9715 13.7948C67.6887 14.1042 68.3251 14.5363 68.8817 15.0911C69.4383 15.6459 69.8715 16.2808 70.182 16.9956C70.4921 17.7105 70.6475 18.468 70.6475 19.2682C70.6475 20.0897 70.4921 20.8579 70.182 21.5727C69.8715 22.2876 69.4383 22.9171 68.8817 23.4612C68.336 24.0053 67.6993 24.4321 66.9715 24.7415C66.2545 25.0403 65.4895 25.1896 64.6762 25.1896C63.8524 25.1896 63.0817 25.0403 62.3647 24.7415C61.6478 24.4428 61.0167 24.0267 60.4707 23.4932C59.925 22.9491 59.4971 22.3196 59.1866 21.6047C58.887 20.8792 58.7372 20.1004 58.7372 19.2682ZM60.503 19.2682C60.503 19.8657 60.6099 20.4258 60.824 20.9486C61.0487 21.4607 61.3535 21.9141 61.7389 22.3089C62.1242 22.693 62.5683 22.9971 63.0711 23.2211C63.5848 23.4345 64.1358 23.5412 64.7244 23.5412C65.3024 23.5412 65.8428 23.4345 66.3456 23.2211C66.8484 22.9971 67.2872 22.693 67.662 22.3089C68.047 21.9141 68.3466 21.4607 68.5607 20.9486C68.7748 20.4258 68.8817 19.8657 68.8817 19.2682C68.8817 18.6707 68.7692 18.1159 68.5445 17.6037C68.3308 17.0809 68.0312 16.6222 67.6458 16.2274C67.2714 15.8327 66.8273 15.5233 66.3136 15.2992C65.8105 15.0751 65.2701 14.9631 64.6924 14.9631C64.0932 14.9631 63.5419 15.0751 63.0391 15.2992C62.536 15.5233 62.0919 15.8327 61.7069 16.2274C61.3215 16.6222 61.022 17.0809 60.8078 17.6037C60.6046 18.1265 60.503 18.6813 60.503 19.2682Z" fill="#222222"/>
<path d="M74.7473 20.9167C74.7473 21.4075 74.8704 21.8503 75.1165 22.245C75.3626 22.6398 75.6889 22.9545 76.0954 23.1893C76.5022 23.424 76.9568 23.5414 77.4599 23.5414C77.9951 23.5414 78.4712 23.424 78.8885 23.1893C79.3059 22.9545 79.6322 22.6398 79.8677 22.245C80.1138 21.8503 80.2369 21.4075 80.2369 20.9167V13.4429H81.9222V20.9647C81.9222 21.8076 81.7242 22.5491 81.3283 23.1893C80.9324 23.8188 80.3972 24.3095 79.7232 24.6616C79.0489 25.0137 78.2946 25.1898 77.4599 25.1898C76.6467 25.1898 75.903 25.0137 75.2287 24.6616C74.5546 24.3095 74.0195 23.8188 73.6236 23.1893C73.2382 22.5491 73.0459 21.8076 73.0459 20.9647V13.4429H74.7473V20.9167Z" fill="#222222"/>
<path d="M93.6134 24.1814C93.4422 24.2987 93.1852 24.4428 92.8427 24.6135C92.5112 24.7735 92.1152 24.9122 91.655 25.0296C91.2056 25.1469 90.7081 25.2003 90.1624 25.1896C89.2528 25.1789 88.434 25.0189 87.7065 24.7095C86.9896 24.4001 86.3795 23.9786 85.8764 23.4452C85.3736 22.901 84.983 22.2822 84.7048 21.5887C84.4373 20.8846 84.3036 20.1377 84.3036 19.3482C84.3036 18.4733 84.4426 17.6731 84.721 16.9476C84.9991 16.2114 85.395 15.5712 85.9087 15.0271C86.433 14.483 87.043 14.0615 87.7385 13.7628C88.4449 13.4641 89.2152 13.3147 90.0499 13.3147C90.7668 13.3147 91.4142 13.4107 91.9922 13.6028C92.5699 13.7948 93.0569 14.0189 93.4528 14.2749L92.7787 15.8753C92.4683 15.6619 92.0832 15.4592 91.623 15.2672C91.1736 15.0645 90.6705 14.9631 90.1143 14.9631C89.5682 14.9631 89.0493 15.0751 88.557 15.2992C88.0757 15.5126 87.6474 15.8166 87.273 16.2114C86.9091 16.5955 86.6204 17.0489 86.4063 17.5717C86.1921 18.0839 86.0852 18.644 86.0852 19.2522C86.0852 19.871 86.1816 20.4418 86.3742 20.9646C86.5666 21.4874 86.8398 21.9408 87.1928 22.3249C87.5567 22.709 87.9899 23.0078 88.493 23.2211C88.9958 23.4345 89.563 23.5412 90.1944 23.5412C90.7936 23.5412 91.3178 23.4505 91.7675 23.2691C92.2274 23.0878 92.6022 22.8797 92.8909 22.645L93.6134 24.1814Z" fill="#222222"/>
<path d="M105.529 13.4427V25.0616H103.811V20.0524H97.904V25.0616H96.1865V13.4427H97.904V18.42H103.811V13.4427H105.529Z" fill="#222222"/>
<path d="M108.805 13.4429H116.461V15.0913H110.522V18.4041H115.803V20.0525H110.522V23.4133H116.686V25.0617H108.805V13.4429Z" fill="#222222"/>
<path d="M119.323 25.0616V13.4427H122.565C123.721 13.4427 124.706 13.6188 125.519 13.9709C126.332 14.323 126.985 14.7871 127.477 15.3632C127.98 15.9394 128.344 16.5795 128.569 17.2837C128.804 17.9879 128.922 18.6974 128.922 19.4122C128.922 20.2764 128.767 21.0553 128.456 21.7488C128.146 22.4423 127.724 23.0398 127.188 23.5412C126.653 24.032 126.038 24.4108 125.342 24.6775C124.647 24.9336 123.909 25.0616 123.127 25.0616H119.323ZM121.041 23.4132H122.806C123.438 23.4132 124.015 23.3225 124.54 23.1411C125.075 22.9598 125.535 22.693 125.92 22.3409C126.316 21.9889 126.621 21.5568 126.835 21.0446C127.049 20.5325 127.156 19.9457 127.156 19.2842C127.156 18.5694 127.033 17.9505 126.787 17.4277C126.552 16.8943 126.236 16.4568 125.84 16.1154C125.444 15.7633 125 15.5073 124.508 15.3472C124.026 15.1765 123.534 15.0912 123.031 15.0912H121.041V23.4132Z" fill="#222222"/>
<path d="M53.6859 31.5349C54.8627 31.5349 55.7885 31.775 56.4625 32.2551C57.1474 32.7352 57.4899 33.4714 57.4899 34.4635C57.4899 35.1037 57.3401 35.6533 57.0405 36.1119C56.7515 36.5708 56.3451 36.9283 55.8205 37.1843C55.3068 37.4297 54.6971 37.5685 53.9907 37.6004L53.734 36.6882C54.5579 36.7096 55.2909 36.8537 55.933 37.1204C56.5856 37.3764 57.0993 37.7392 57.4737 38.2086C57.8591 38.6675 58.0517 39.2168 58.0517 39.857C58.0517 40.4438 57.9392 40.9507 57.7146 41.3773C57.5008 41.7935 57.2065 42.1349 56.8317 42.4017C56.4681 42.6576 56.0508 42.8497 55.58 42.9777C55.1197 43.0951 54.638 43.1537 54.1352 43.1537H50.5879V31.5349H53.6859ZM53.9907 36.5602C54.5899 36.5602 55.0287 36.3895 55.3068 36.0481C55.5852 35.7066 55.7241 35.301 55.7241 34.8316C55.7241 34.2556 55.5423 33.8395 55.1784 33.5833C54.8254 33.3168 54.3546 33.1833 53.766 33.1833H52.3055V36.5602H53.9907ZM54.0551 41.5695C54.4724 41.5695 54.8469 41.5106 55.1784 41.3935C55.5209 41.2652 55.7885 41.0787 55.9811 40.8333C56.1844 40.577 56.286 40.257 56.286 39.8731C56.286 39.4461 56.1682 39.1155 55.933 38.8806C55.7083 38.6352 55.414 38.4645 55.0501 38.3685C54.6971 38.2619 54.3279 38.2086 53.9426 38.2086H52.3055V41.5695H54.0551Z" fill="#222222"/>
<path d="M63.2308 39.329L58.9131 31.5349H61.0319L64.3865 37.8724L63.8728 37.9043L67.1955 31.5349H69.2981L64.9484 39.329V43.1537H63.2308V39.329Z" fill="#222222"/>
<path d="M76.4678 43.1537V31.1509H76.4836L82.6796 39.905L81.9412 39.7448L88.1048 31.1509H88.1368V43.1537H86.4354V35.0077L86.5479 35.8879L82.2461 41.9534H82.214L77.832 35.8879L78.121 35.0879V43.1537H76.4678Z" fill="#222222"/>
<path d="M91.4053 43.1537V31.5349H94.6478C95.8035 31.5349 96.788 31.711 97.6012 32.063C98.4145 32.4151 99.0671 32.8793 99.5593 33.4553C100.062 34.0316 100.426 34.6718 100.651 35.3757C100.886 36.08 101.004 36.7895 101.004 37.5043C101.004 38.3685 100.849 39.1474 100.539 39.8408C100.228 40.5346 99.8054 41.132 99.2706 41.6333C98.7355 42.1241 98.1202 42.503 97.4247 42.7698C96.7289 43.0257 95.9905 43.1537 95.2096 43.1537H91.4053ZM93.1229 41.5053H94.8886C95.5198 41.5053 96.0978 41.4145 96.622 41.2333C97.1572 41.052 97.6171 40.7852 98.0024 40.4333C98.3983 40.081 98.7035 39.6491 98.9173 39.1369C99.1314 38.6247 99.2383 38.0379 99.2383 37.3764C99.2383 36.6616 99.1153 36.0428 98.8691 35.5198C98.6339 34.9866 98.3182 34.5491 97.9222 34.2076C97.5263 33.8556 97.0823 33.5994 96.59 33.4395C96.1083 33.2688 95.6161 33.1833 95.1133 33.1833H93.1229V41.5053Z" fill="#222222"/>
<path d="M109.621 33.7596C109.214 33.5461 108.776 33.3649 108.305 33.2152C107.834 33.0659 107.379 32.9912 106.94 32.9912C106.341 32.9912 105.865 33.13 105.512 33.4073C105.159 33.6741 104.982 34.0422 104.982 34.5116C104.982 34.8425 105.1 35.1304 105.335 35.3757C105.571 35.6211 105.876 35.8346 106.25 36.0162C106.624 36.1975 107.021 36.3682 107.438 36.5281C107.791 36.6563 108.139 36.8109 108.481 36.9922C108.834 37.1629 109.15 37.3764 109.428 37.6323C109.717 37.8886 109.942 38.2086 110.103 38.5929C110.274 38.9662 110.359 39.4248 110.359 39.9692C110.359 40.5879 110.204 41.1481 109.894 41.6494C109.594 42.1507 109.155 42.5511 108.578 42.8498C108.01 43.1379 107.32 43.282 106.507 43.282C106.015 43.282 105.533 43.2284 105.062 43.1218C104.602 43.0044 104.163 42.855 103.746 42.6738C103.339 42.4817 102.97 42.2734 102.639 42.0494L103.409 40.7211C103.666 40.9027 103.96 41.0787 104.292 41.2494C104.623 41.4093 104.966 41.5373 105.319 41.6333C105.683 41.7294 106.025 41.7774 106.346 41.7774C106.699 41.7774 107.047 41.7188 107.39 41.6014C107.732 41.4734 108.016 41.2813 108.24 41.0254C108.465 40.7586 108.578 40.4119 108.578 39.985C108.578 39.6221 108.476 39.3182 108.272 39.0728C108.08 38.8169 107.818 38.5981 107.486 38.4165C107.165 38.2353 106.817 38.0751 106.443 37.9366C106.079 37.7978 105.71 37.6432 105.335 37.4725C104.961 37.3017 104.613 37.0991 104.292 36.8642C103.971 36.6188 103.709 36.3202 103.505 35.9682C103.313 35.6054 103.216 35.1626 103.216 34.6396C103.216 34.0208 103.361 33.482 103.65 33.0234C103.949 32.5539 104.362 32.1858 104.886 31.9191C105.41 31.6523 106.015 31.503 106.699 31.4709C107.481 31.4709 108.16 31.567 108.738 31.759C109.316 31.9511 109.83 32.1805 110.279 32.4472L109.621 33.7596Z" fill="#222222"/>
<path d="M6.70214 6.83331C6.82071 6.83337 6.93652 6.79765 7.03434 6.73088C12.3745 3.09755 18.6328 1.1771 25.1328 1.1771C26.702 1.17693 28.2692 1.28999 29.8221 1.51541C29.9769 1.53788 30.1344 1.49812 30.2598 1.40488C30.3853 1.31164 30.4685 1.17254 30.4911 1.01817C30.5138 0.863796 30.474 0.706777 30.3806 0.581622C30.2872 0.456467 30.1477 0.373421 29.9929 0.350737C28.3835 0.117043 26.7592 -0.000174817 25.1328 1.95687e-07C18.3944 1.95687e-07 11.9059 1.99127 6.36888 5.75857C6.26466 5.82949 6.18597 5.93186 6.14434 6.05064C6.10274 6.16943 6.10039 6.29838 6.13767 6.41857C6.17496 6.53877 6.24985 6.6439 6.35146 6.71854C6.45305 6.79318 6.57594 6.83341 6.70214 6.83331Z" fill="#222222"/>
<path d="M4.04328 14.4846C4.125 14.4847 4.20587 14.4679 4.28069 14.4351C4.35555 14.4024 4.42273 14.3545 4.47799 14.2944C8.31697 10.1388 13.3261 7.23724 18.8482 5.9702C24.3704 4.70319 30.1477 5.1299 35.4222 7.19438C35.5681 7.25138 35.7304 7.24839 35.8736 7.18612C36.0171 7.12385 36.1299 7.00737 36.1873 6.86227C36.2444 6.71717 36.2418 6.5553 36.1794 6.41224C36.1174 6.26914 36.0006 6.15658 35.8551 6.09921C30.36 3.93799 24.337 3.48813 18.5804 4.80891C12.8237 6.12974 7.60375 9.15918 3.60887 13.4978C3.53127 13.5819 3.47994 13.6867 3.46113 13.7995C3.44233 13.9122 3.45681 14.028 3.5029 14.1326C3.54896 14.2373 3.62457 14.3263 3.72055 14.3888C3.81652 14.4513 3.92867 14.4846 4.04328 14.4846Z" fill="#222222"/>
<path d="M3.66971 21.3153C3.73652 21.3545 3.81039 21.3802 3.88716 21.391C3.96393 21.4018 4.04209 21.3973 4.11715 21.378C4.19221 21.3586 4.26268 21.3247 4.32457 21.2781C4.38647 21.2316 4.43856 21.1733 4.47785 21.1067C8.76607 13.8452 16.6806 9.33421 25.1328 9.33421C29.4918 9.33029 33.7692 10.5134 37.503 12.7559C37.6373 12.8364 37.7976 12.8606 37.9497 12.8231C38.1015 12.7856 38.2321 12.6895 38.3129 12.5559C38.3941 12.4224 38.4182 12.2623 38.3809 12.1108C38.3433 11.9593 38.2473 11.8289 38.1133 11.7482C35.2658 10.0366 32.1063 8.90523 28.8174 8.41937C25.5285 7.93352 22.1756 8.10292 18.9528 8.91773C15.7301 9.73256 12.7014 11.1766 10.0421 13.1663C7.38286 15.1561 5.14582 17.652 3.46054 20.5095C3.42121 20.5761 3.39541 20.6498 3.38462 20.7263C3.37387 20.8028 3.37832 20.8808 3.39775 20.9556C3.41715 21.0304 3.45117 21.1007 3.49785 21.1624C3.5445 21.2241 3.6029 21.276 3.66971 21.3153Z" fill="#222222"/>
<path d="M25.1337 12.2361C22.3694 12.2327 19.6315 12.7731 17.0769 13.8263C14.5223 14.8795 12.2012 16.4248 10.2465 18.3737C8.29183 20.3227 6.74194 22.6369 5.68563 25.1839C4.62931 27.731 4.08732 30.4607 4.09071 33.2168L4.09075 33.2181C4.09075 35.5375 5.0149 37.7622 6.65986 39.4023C8.30486 41.0425 10.5359 41.9638 12.8623 41.9638C15.1887 41.9638 17.4197 41.0425 19.0647 39.4023C20.7097 37.7622 21.6339 35.5375 21.6339 33.2181L21.6339 33.2168C21.6338 32.2918 22.0021 31.4045 22.6579 30.75C23.3137 30.0956 24.2033 29.7275 25.1311 29.7266C26.059 29.7259 26.9492 30.0924 27.6061 30.7457C28.263 31.3991 28.6329 32.2857 28.6344 33.2109C28.6344 33.2129 28.6341 33.2148 28.6341 33.2168C28.6341 41.1464 22.694 47.8556 14.8168 48.8231C14.6677 48.8415 14.5312 48.9158 14.4352 49.0309C14.3391 49.1461 14.2907 49.2934 14.2998 49.4428C14.3089 49.5925 14.3749 49.7329 14.4842 49.8356C14.5935 49.9382 14.738 49.9954 14.8883 49.9958C14.9127 49.9958 14.937 49.9941 14.9612 49.9911C19.061 49.4833 22.8334 47.499 25.5688 44.4119C28.3042 41.325 29.8141 37.3477 29.8145 33.2286C29.8146 33.2247 29.8151 33.2208 29.8151 33.2168C29.8152 32.604 29.6942 31.9971 29.459 31.4309C29.2239 30.8646 28.8792 30.3501 28.4446 29.9166C28.01 29.4832 27.494 29.1393 26.9261 28.9047C26.3582 28.6701 25.7495 28.5493 25.1348 28.5492C24.5201 28.5492 23.9114 28.6698 23.3435 28.9043C22.7755 29.1387 22.2595 29.4824 21.8248 29.9158C21.39 30.3491 21.0452 30.8636 20.8099 31.4297C20.5745 31.996 20.4534 32.6028 20.4533 33.2158L20.4533 33.2168C20.4533 37.3902 17.048 40.7856 12.8623 40.7856C8.67665 40.7856 5.27134 37.3902 5.27134 33.2168L5.27128 33.2161C5.27174 22.2967 14.1818 13.4132 25.1337 13.4132C29.731 13.4148 34.186 15.0028 37.7423 17.9076C37.8023 17.9566 37.8713 17.9935 37.9455 18.0159C38.0194 18.0384 38.0973 18.0461 38.1745 18.0386C38.2517 18.031 38.3266 18.0084 38.3949 17.9721C38.4635 17.9357 38.5238 17.8862 38.573 17.8265C38.6222 17.7668 38.6591 17.698 38.6819 17.624C38.7043 17.5501 38.7119 17.4724 38.7047 17.3955C38.6971 17.3186 38.6743 17.2439 38.6377 17.1757C38.6014 17.1075 38.5516 17.0472 38.4918 16.9981C34.7294 13.9115 30.0061 12.2278 25.1337 12.2361Z" fill="#222222"/>
<path d="M37.4055 33.8052C37.5622 33.8052 37.7123 33.7434 37.8228 33.6328C37.9337 33.5226 37.9957 33.373 37.996 33.2167C37.9964 31.5324 37.6641 29.8644 37.0178 28.3081C36.3715 26.7518 35.4243 25.3377 34.23 24.1465C33.0353 22.9553 31.6174 22.0104 30.0566 21.3657C28.4959 20.721 26.823 20.3892 25.1337 20.3892C23.4443 20.3892 21.7715 20.721 20.2107 21.3657C18.65 22.0104 17.2319 22.9553 16.0375 24.1465C14.8431 25.3377 13.8957 26.7518 13.2495 28.3081C12.6034 29.8644 12.271 31.5324 12.2715 33.2167C12.2715 33.373 12.3337 33.5226 12.4444 33.6328C12.5551 33.7434 12.7052 33.8052 12.8618 33.8052C13.0183 33.8052 13.1685 33.7434 13.2792 33.6328C13.3899 33.5226 13.452 33.373 13.452 33.2167C13.452 26.7946 18.6924 21.5697 25.1336 21.5697C31.5749 21.5697 36.8152 26.7946 36.8152 33.2167C36.8152 33.373 36.8776 33.5226 36.9881 33.6328C37.099 33.7434 37.2491 33.8052 37.4055 33.8052Z" fill="#222222"/>
<path d="M25.1345 24.4714C23.9826 24.4708 22.8417 24.6965 21.7774 25.1357C20.7129 25.575 19.7457 26.219 18.9311 27.0311C18.1165 27.8432 17.4704 28.8075 17.0298 29.8686C16.5891 30.9299 16.3625 32.0673 16.363 33.2159L16.3629 33.2169C16.3629 34.1419 15.9946 35.029 15.3389 35.6836C14.6832 36.3379 13.7937 36.706 12.866 36.7067C11.9383 36.7077 11.0481 36.3412 10.3912 35.6882C9.73426 35.035 9.36422 34.1488 9.36244 33.2238C9.36244 33.2215 9.36273 33.2192 9.36273 33.2169C9.36273 24.5459 16.4377 17.4914 25.1341 17.4914C30.0772 17.4914 34.6389 19.7323 37.6492 23.6395C37.7445 23.7633 37.8854 23.8442 38.0405 23.8645C38.1959 23.8848 38.3529 23.8428 38.4769 23.7477C38.601 23.6526 38.6822 23.5122 38.7026 23.3575C38.7231 23.2027 38.6808 23.0462 38.5855 22.9224C37.0269 20.9042 35.0345 19.2602 32.7548 18.1112C30.1709 16.8128 27.2966 16.1956 24.4057 16.3186C21.5148 16.4415 18.7037 17.3005 16.2401 18.8137C13.7765 20.3268 11.7426 22.4437 10.332 24.9627C8.92156 27.4817 8.18148 30.3188 8.18233 33.2037C8.1822 33.2083 8.18164 33.2126 8.18164 33.2169C8.18148 34.4547 8.67451 35.6419 9.55224 36.5172C10.43 37.3925 11.6205 37.8846 12.862 37.8846C14.1034 37.885 15.2941 37.3932 16.1721 36.5182C17.05 35.6432 17.5434 34.456 17.5435 33.2182L17.5436 33.2169C17.5436 29.0437 20.9489 25.6485 25.1345 25.6485C29.3202 25.6485 32.7255 29.0437 32.7255 33.2169C32.7304 35.7606 32.2414 38.2807 31.2856 40.6389C31.2565 40.7106 31.2418 40.7873 31.2425 40.8646C31.2431 40.9419 31.259 41.0185 31.2893 41.0896C31.3195 41.1606 31.3636 41.2254 31.4189 41.2794C31.4742 41.3336 31.5396 41.3764 31.6115 41.4054C31.6834 41.4343 31.7603 41.4491 31.8378 41.4484C31.9153 41.4478 31.992 41.4317 32.0634 41.4017C32.1347 41.3715 32.1995 41.3274 32.2538 41.2725C32.3081 41.2172 32.3511 41.1521 32.3801 41.0804C33.3928 38.582 33.9111 35.9116 33.9062 33.2169C33.9068 32.0683 33.6802 30.9308 33.2397 29.8695C32.7991 28.8081 32.153 27.8438 31.3383 27.0315C30.5237 26.2193 29.5565 25.5751 28.492 25.1358C27.4275 24.6965 26.2866 24.4707 25.1345 24.4714Z" fill="#222222"/>
<path d="M12.8622 46.0412C14.5515 46.0422 16.2245 45.7109 17.7854 45.0668C19.3463 44.4228 20.7647 43.478 21.9592 42.2872C23.1538 41.0961 24.1011 39.682 24.7472 38.1257C25.3932 36.5695 25.7253 34.9014 25.7244 33.2168C25.7244 33.0609 25.6622 32.9112 25.5515 32.8008C25.4408 32.6905 25.2907 32.6284 25.1341 32.6284C24.9775 32.6284 24.8274 32.6905 24.7167 32.8008C24.606 32.9112 24.5438 33.0609 24.5438 33.2168C24.5438 39.6392 19.3034 44.8642 12.8622 44.8642C6.42091 44.8642 1.18059 39.6392 1.18059 33.2168C1.18059 33.0609 1.1184 32.9112 1.0077 32.8008C0.896993 32.6905 0.746851 32.6284 0.590296 32.6284C0.433741 32.6284 0.283595 32.6905 0.172893 32.8008C0.0621919 32.9112 1.92068e-06 33.0609 1.92068e-06 33.2168C-0.000921505 34.9014 0.331138 36.5695 0.977194 38.1257C1.62325 39.682 2.57064 41.0961 3.76519 42.2872C4.95974 43.478 6.37802 44.4228 7.93895 45.0668C9.49988 45.7109 11.1728 46.0422 12.8622 46.0412Z" fill="#222222"/>
</g>
<defs>
<clipPath id="clip0_23_253">
<rect width="129" height="50" fill="white"/>
</clipPath>
</defs>
</svg>
