<svg width="40" height="40" viewBox="0 0 40 40" fill="none" xmlns="http://www.w3.org/2000/svg">
<circle cx="20" cy="20" r="20" fill="#0A2141" fill-opacity="0.2"/>
<circle cx="20" cy="20" r="17" fill="#0A2141"/>
<path d="M24.5833 10.8334H15.4167C12.8854 10.8334 10.8333 12.8854 10.8333 15.4167V24.5834C10.8333 27.1147 12.8854 29.1667 15.4167 29.1667H24.5833C27.1146 29.1667 29.1667 27.1147 29.1667 24.5834V15.4167C29.1667 12.8854 27.1146 10.8334 24.5833 10.8334Z" stroke="white" stroke-width="1.5" stroke-linecap="round" stroke-linejoin="round"/>
<path d="M23.6667 19.4225C23.7798 20.1854 23.6495 20.9646 23.2943 21.6491C22.9391 22.3337 22.377 22.8888 21.6882 23.2356C20.9993 23.5823 20.2186 23.703 19.4571 23.5805C18.6957 23.4579 17.9923 23.0984 17.4469 22.5531C16.9016 22.0078 16.5421 21.3043 16.4196 20.5429C16.297 19.7815 16.4177 19.0008 16.7645 18.3119C17.1112 17.623 17.6663 17.061 18.3509 16.7058C19.0355 16.3505 19.8146 16.2202 20.5775 16.3334C21.3557 16.4488 22.0761 16.8114 22.6324 17.3676C23.1887 17.9239 23.5513 18.6444 23.6667 19.4225Z" stroke="white" stroke-width="1.5" stroke-linecap="round" stroke-linejoin="round"/>
<path d="M25.4951 14.8911C25.5092 14.9865 25.4929 15.0839 25.4485 15.1694C25.4041 15.255 25.3339 15.3244 25.2477 15.3677C25.1616 15.4111 25.064 15.4262 24.9689 15.4108C24.8737 15.3955 24.7858 15.3506 24.7176 15.2824C24.6494 15.2143 24.6045 15.1263 24.5892 15.0311C24.5738 14.936 24.5889 14.8384 24.6323 14.7523C24.6756 14.6662 24.745 14.5959 24.8306 14.5515C24.9162 14.5071 25.0135 14.4908 25.1089 14.505C25.2062 14.5194 25.2962 14.5647 25.3658 14.6342C25.4353 14.7038 25.4806 14.7938 25.4951 14.8911Z" stroke="white" stroke-width="1.5" stroke-linecap="round" stroke-linejoin="round"/>
</svg>
