<svg width="48" height="48" viewBox="0 0 48 48" fill="none" xmlns="http://www.w3.org/2000/svg">
<circle cx="24" cy="24" r="24" fill="white" fill-opacity="0.2"/>
<circle cx="24" cy="24.0001" r="20.4" fill="white"/>
<path d="M24 13.2C21.7731 13.2028 19.6382 14.0571 18.0636 15.5755C16.4889 17.094 15.603 19.1526 15.6 21.2999C15.6 27.1151 23.426 34.3983 23.7585 34.7054C23.8232 34.766 23.9098 34.8 24 34.8C24.0902 34.8 24.1768 34.766 24.2415 34.7054C24.574 34.3983 32.4 27.1151 32.4 21.2999C32.3971 19.1526 31.5111 17.094 29.9364 15.5755C28.3618 14.0571 26.2269 13.2028 24 13.2ZM24 25.0124C23.2385 25.0124 22.4942 24.7947 21.8611 24.3868C21.2279 23.9788 20.7345 23.399 20.4431 22.7207C20.1517 22.0423 20.0754 21.2958 20.224 20.5757C20.3725 19.8555 20.7392 19.194 21.2776 18.6748C21.8161 18.1556 22.5021 17.802 23.2489 17.6588C23.9957 17.5155 24.7698 17.5891 25.4733 17.87C26.1768 18.151 26.7781 18.6269 27.2012 19.2374C27.6242 19.8479 27.85 20.5657 27.85 21.2999C27.8494 22.2844 27.4436 23.2283 26.7217 23.9244C25.9998 24.6205 25.0209 25.0118 24 25.0124Z" fill="#0A2141"/>
</svg>
