<svg width="40" height="40" viewBox="0 0 40 40" fill="none" xmlns="http://www.w3.org/2000/svg">
<circle cx="20" cy="20" r="20" fill="#0A2141" fill-opacity="0.2"/>
<circle cx="20" cy="20" r="17" fill="#0A2141"/>
<path d="M20 11C18.1442 11.0024 16.3652 11.7143 15.053 12.9796C13.7408 14.245 13.0025 15.9605 13 17.75C13 22.5959 19.5217 28.6653 19.7987 28.9212C19.8526 28.9717 19.9248 29 20 29C20.0752 29 20.1474 28.9717 20.2012 28.9212C20.4783 28.6653 27 22.5959 27 17.75C26.9975 15.9605 26.2592 14.245 24.947 12.9796C23.6348 11.7143 21.8558 11.0024 20 11ZM20 20.8437C19.3655 20.8437 18.7452 20.6623 18.2175 20.3223C17.6899 19.9824 17.2787 19.4992 17.0359 18.9339C16.7931 18.3686 16.7295 17.7466 16.8533 17.1464C16.9771 16.5463 17.2827 15.9951 17.7314 15.5624C18.1801 15.1297 18.7517 14.8351 19.3741 14.7157C19.9964 14.5963 20.6415 14.6576 21.2278 14.8917C21.814 15.1259 22.3151 15.5224 22.6676 16.0312C23.0202 16.54 23.2083 17.1381 23.2083 17.75C23.2078 18.5704 22.8696 19.357 22.2681 19.9371C21.6665 20.5171 20.8507 20.8432 20 20.8437Z" fill="white"/>
</svg>
